<svg width="323" height="259" viewBox="0 0 323 259" fill="none" xmlns="http://www.w3.org/2000/svg">
<circle cx="193.5" cy="129.5" r="129.5" fill="url(#paint0_linear_327_90)"/>
<g clip-path="url(#clip0_327_90)">
<path d="M4.15 147.94C1.82 147.94 0 146.11 0 143.79V41.15C0 38.83 1.83 37 4.15 37H69.08C92.83 37 104.95 46.96 104.95 65.07C104.95 81.84 99.64 88.82 89.34 91.14V91.47C99.64 93.63 107.44 102.6 107.44 118.21C107.44 134.98 95.32 147.94 71.57 147.94H4.15ZM59.12 77.85C60.95 77.85 62.44 76.69 62.44 74.86C62.44 73.2 60.94 72.04 59.12 72.04H43.51L43.68 112.89H59.29C61.12 112.89 62.61 111.73 62.61 109.9C62.61 108.24 61.11 107.08 59.29 107.08H49.66L49.49 77.85H59.12Z" fill="white"/>
<path d="M196.14 37L159.6 37.17L178.53 102.27C179.03 104.26 177.87 105.92 176.2 106.26C174.54 106.76 173.04 105.6 172.38 103.6L155.27 48.47C152.94 41 147.3 37.18 137.5 37.18L106.45 37.01C103.25 37.01 100.35 37.78 97.8702 39.14C108.06 46.34 110.14 57.34 110.14 65.07C110.14 73.64 109 84.58 101.05 91.22C108.38 96.83 112.63 106.38 112.63 118.21C112.63 131.68 106.11 142.11 94.9702 147.94H132.35L118.73 98.95C118.23 96.96 119.4 95.3 121.22 94.96C123.05 94.63 124.38 95.62 125.04 97.62L136.5 135.82C138.83 143.46 144.8 147.94 152.77 147.94H183.49C193.29 147.94 200.43 140.8 200.43 131V41.15C200.43 38.82 198.44 37 196.11 37H196.14Z" fill="white"/>
<path d="M1.41992 220.95V160.11C1.41992 159.3 1.95992 158.76 2.76992 158.76H41.8299C57.5799 158.76 63.0699 165.69 63.0699 182.61V198.81C63.0699 215.64 57.5799 222.3 41.8299 222.3H2.76992C1.95992 222.3 1.41992 221.76 1.41992 220.95ZM41.4699 216.72C53.6199 216.72 57.3999 212.85 57.3999 198.81V182.61C57.3999 168.39 53.6199 164.34 41.4699 164.34H7.08992V216.72H41.4699Z" fill="white"/>
<path d="M73.2402 220.95V160.11C73.2402 159.3 73.7802 158.76 74.5902 158.76H125.62C126.43 158.76 126.97 159.3 126.97 160.11V162.99C126.97 163.8 126.43 164.34 125.62 164.34H78.9102V186.93H111.85C112.66 186.93 113.2 187.47 113.2 188.28V191.07C113.2 191.88 112.66 192.42 111.85 192.42H78.9102V216.72H125.62C126.43 216.72 126.97 217.26 126.97 218.07V220.95C126.97 221.76 126.43 222.3 125.62 222.3H74.5902C73.7802 222.3 73.2402 221.76 73.2402 220.95Z" fill="white"/>
<path d="M161.98 221.31L131.11 160.38C130.66 159.39 131.11 158.76 132.1 158.76H135.61C136.33 158.76 136.87 159.03 137.23 159.75L165.58 215.73L193.84 159.75C194.2 159.12 194.65 158.76 195.37 158.76H198.88C199.87 158.76 200.32 159.39 199.87 160.38L169.09 221.31C168.73 221.94 168.28 222.3 167.56 222.3H163.6C162.88 222.3 162.34 222.03 161.98 221.31Z" fill="white"/>
<path d="M250.94 111.4C250.94 117.42 250.25 122.1 248.89 125.44C247.52 128.79 244.92 131.76 241.1 134.36C244.92 136.96 247.52 140 248.89 143.48C250.25 146.97 250.94 151.72 250.94 157.73V189.3C250.94 195.86 251.83 199.96 253.61 201.6C254.7 202.42 256.55 203.07 259.15 203.55C261.74 204.03 265.37 204.27 270.02 204.27V222.11H260.79C249.72 222.11 241.83 219.72 237.11 214.94C232.4 210.15 230.04 202.02 230.04 190.54V158.15C230.04 153.23 229.15 149.57 227.37 147.18C225.59 144.79 222.72 143.05 218.76 141.95V126.16C226.27 123.98 230.04 118.78 230.04 110.58V75.93C230.04 65.41 232.46 57.82 237.32 53.17C242.17 48.53 250.06 46.2 261 46.2H270.02V64.24C265.37 64.38 261.75 64.69 259.15 65.16C256.55 65.64 254.71 66.29 253.61 67.11C251.83 68.75 250.94 72.58 250.94 78.59V111.39V111.4Z" fill="white"/>
</g>
<defs>
<linearGradient id="paint0_linear_327_90" x1="103.5" y1="54" x2="289" y2="195" gradientUnits="userSpaceOnUse">
<stop stop-color="#651F7D"/>
<stop offset="0.815" stop-color="#D041FF"/>
</linearGradient>
<clipPath id="clip0_327_90">
<rect width="270" height="185.3" fill="white" transform="translate(0 37)"/>
</clipPath>
</defs>
</svg>
